<svg xmlns="http://www.w3.org/2000/svg" version="1.1" xmlns:xlink="http://www.w3.org/1999/xlink" xmlns:svgjs="http://svgjs.dev/svgjs" width="1500" height="1500" viewBox="0 0 1500 1500"><rect width="1500" height="1500" fill="#000000"></rect><g transform="matrix(0.6666666666666666,0,0,0.6666666666666666,249.39393939393943,633.2955292876792)"><svg viewBox="0 0 396 93" data-background-color="#ffffff" preserveAspectRatio="xMidYMid meet" height="352" width="1500" xmlns="http://www.w3.org/2000/svg" xmlns:xlink="http://www.w3.org/1999/xlink"><g id="tight-bounds" transform="matrix(1,0,0,1,0.2400000000000091,-0.2492225444069902)"><svg viewBox="0 0 395.52 93.49827113303444" height="93.49827113303444" width="395.52"><g><svg viewBox="0 0 551.0425516815785 130.26275764301013" height="93.49827113303444" width="395.52"><g transform="matrix(1,0,0,1,155.52255168157856,38.38173671624191)"><svg viewBox="0 0 395.52 53.49928421052631" height="53.49928421052631" width="395.52"><g id="textblocktransform"><svg viewBox="0 0 395.52 53.49928421052631" height="53.49928421052631" width="395.52" id="textblock"><g><svg viewBox="0 0 395.52 53.49928421052631" height="53.49928421052631" width="395.52"><g transform="matrix(1,0,0,1,0,0)"><svg width="395.52" viewBox="1.4 -37.9 284.98 38.55" height="53.49928421052631" data-palette-color="#2ea673"><path d="M9.3 0L1.4-34.1 5.65-34.1 12.25-4 12.3-4 21.05-34.1 26.35-34.1 35-4 35.05-4 41.6-34.1 45.85-34.1 38 0 32.7 0 23.7-30.05 23.65-30.05 14.6 0 9.3 0ZM63.8-5.85L63.8-11.55Q62.8-11.5 61.9-11.45 61-11.4 60.12-11.33 59.25-11.25 58.55-11.15L58.55-11.15Q54.95-10.7 53.45-9.58 51.95-8.45 51.95-6.35L51.95-6.35Q51.95-4.6 53.02-3.73 54.1-2.85 55.85-2.85L55.85-2.85Q58.25-2.85 60.12-3.68 62-4.5 63.8-5.85L63.8-5.85ZM64.25 0.4L63.75-2.35Q61.4-1 59.37-0.18 57.35 0.65 55 0.65L55 0.65Q51.65 0.65 49.67-0.98 47.7-2.6 47.7-6.35L47.7-6.35Q47.7-8.3 48.7-9.75 49.7-11.2 51.32-12.18 52.95-13.15 55-13.7 57.05-14.25 59.2-14.4L59.2-14.4Q60.1-14.5 61.55-14.58 63-14.65 63.8-14.7L63.8-14.7Q63.8-16.45 63.7-17.82 63.6-19.2 63.1-20.18 62.6-21.15 61.62-21.65 60.65-22.15 58.85-22.15L58.85-22.15Q57.4-22.15 56.05-21.98 54.7-21.8 53.65-21.6L53.65-21.6Q52.4-21.35 51.35-21.05L51.35-21.05 50.55-24.5Q51.8-24.8 53.25-25.05L53.25-25.05Q54.5-25.3 56.15-25.48 57.8-25.65 59.7-25.65L59.7-25.65Q62.25-25.65 63.82-24.9 65.4-24.15 66.27-22.88 67.15-21.6 67.47-19.98 67.8-18.35 67.8-16.55L67.8-16.55 67.8-4.55Q67.8-3.85 67.82-3.08 67.85-2.3 67.92-1.55 68-0.8 68.1 0L68.1 0 64.25 0.4ZM74.9 0L74.9-20.15Q74.95-21.2 74.65-24.7L74.65-24.7 78.34-25.2 78.9-22Q80.4-23 81.87-23.75 83.34-24.5 84.9-25.08 86.45-25.65 87.9-25.65L87.9-25.65Q89.95-25.65 91.32-25.18 92.7-24.7 93.55-23.6 94.4-22.5 94.77-20.7 95.15-18.9 95.15-16.2L95.15-16.2 95.15 0 91.15 0 91.15-15.75Q91.15-17.25 91.09-18.43 91.05-19.6 90.67-20.43 90.3-21.25 89.52-21.7 88.75-22.15 87.34-22.15L87.34-22.15Q86.05-22.15 84.59-21.58 83.15-21 81.75-20.25 80.34-19.5 78.9-18.5L78.9-18.5 78.9 0 74.9 0ZM117.89-5.5L117.89-21.4Q116.09-21.9 115.09-22.03 114.09-22.15 113.04-22.15L113.04-22.15Q110.94-22.15 109.44-21.4 107.94-20.65 106.97-19.33 105.99-18 105.54-16.28 105.09-14.55 105.09-12.6L105.09-12.6Q105.09-10.85 105.47-9.1 105.84-7.35 106.64-5.95 107.44-4.55 108.59-3.7 109.74-2.85 111.34-2.85L111.34-2.85Q112.44-2.85 113.62-3.25 114.79-3.65 115.79-4.17 116.79-4.7 117.89-5.5L117.89-5.5ZM118.34 0.4L117.94-2Q116.79-1.2 115.72-0.68 114.64-0.15 113.37 0.25 112.09 0.65 110.89 0.65L110.89 0.65Q106.19 0.65 103.52-2.68 100.84-6 100.84-12.4L100.84-12.4Q100.84-16.2 102.07-18.75 103.29-21.3 105.14-22.83 106.99-24.35 109.12-25 111.24-25.65 113.04-25.65L113.04-25.65Q113.94-25.65 114.94-25.53 115.94-25.4 117.89-24.9L117.89-24.9 117.89-37.45 121.89-37.9 121.89-4.55Q121.89-3.85 121.92-3.08 121.94-2.3 122.02-1.55 122.09-0.8 122.19 0L122.19 0 118.34 0.4ZM146.99-3.95L147.74-0.6Q146.59-0.25 145.37 0 144.14 0.25 142.67 0.45 141.19 0.65 139.59 0.65L139.59 0.65Q137.09 0.65 134.94-0.05 132.79-0.75 131.19-2.3 129.59-3.85 128.67-6.33 127.74-8.8 127.74-12.4L127.74-12.4Q127.74-15.65 128.64-18.13 129.54-20.6 131.12-22.28 132.69-23.95 134.81-24.8 136.94-25.65 139.44-25.65L139.44-25.65Q141.89-25.65 143.69-24.7 145.49-23.75 146.67-22.13 147.84-20.5 148.42-18.32 148.99-16.15 148.99-13.75L148.99-13.75 148.24-11.55 132.09-11.55Q132.09-10 132.49-8.45 132.89-6.9 133.87-5.65 134.84-4.4 136.42-3.63 137.99-2.85 140.34-2.85L140.34-2.85Q141.84-2.85 143.09-3.03 144.34-3.2 145.27-3.43 146.19-3.65 146.99-3.95L146.99-3.95ZM132.24-14.75L144.84-14.75Q144.84-15.1 144.69-16.3 144.54-17.5 143.99-18.8 143.44-20.1 142.29-21.13 141.14-22.15 139.24-22.15L139.24-22.15Q137.14-22.15 135.79-21.28 134.44-20.4 133.64-19.2 132.84-18 132.54-16.75 132.24-15.5 132.24-14.75L132.24-14.75ZM154.49 0L154.49-21.1Q154.49-22.25 154.24-24.7L154.24-24.7 157.94-25.2 158.34-21.55 158.39-21.55Q159.29-22.7 160.14-23.55 160.99-24.4 161.91-25.03 162.84-25.65 163.69-25.65L163.69-25.65Q164.84-25.7 166.89-25.4L166.89-25.4 165.99-21.55Q164.34-21.85 163.69-21.8L163.69-21.8Q162.84-21.8 161.89-21 160.94-20.2 160.24-19.3L160.24-19.3Q159.34-18.2 158.49-16.8L158.49-16.8 158.49 0 154.49 0ZM176.99 0L169.09-34.1 173.34-34.1 179.94-4 179.99-4 188.74-34.1 194.03-34.1 202.69-4 202.74-4 209.28-34.1 213.53-34.1 205.69 0 200.38 0 191.38-30.05 191.34-30.05 182.28 0 176.99 0ZM231.48-5.85L231.48-11.55Q230.48-11.5 229.58-11.45 228.68-11.4 227.81-11.33 226.93-11.25 226.23-11.15L226.23-11.15Q222.63-10.7 221.13-9.58 219.63-8.45 219.63-6.35L219.63-6.35Q219.63-4.6 220.71-3.73 221.78-2.85 223.53-2.85L223.53-2.85Q225.93-2.85 227.81-3.68 229.68-4.5 231.48-5.85L231.48-5.85ZM231.93 0.4L231.43-2.35Q229.08-1 227.06-0.18 225.03 0.65 222.68 0.65L222.68 0.65Q219.33 0.65 217.36-0.98 215.38-2.6 215.38-6.35L215.38-6.35Q215.38-8.3 216.38-9.75 217.38-11.2 219.01-12.18 220.63-13.15 222.68-13.7 224.73-14.25 226.88-14.4L226.88-14.4Q227.78-14.5 229.23-14.58 230.68-14.65 231.48-14.7L231.48-14.7Q231.48-16.45 231.38-17.82 231.28-19.2 230.78-20.18 230.28-21.15 229.31-21.65 228.33-22.15 226.53-22.15L226.53-22.15Q225.08-22.15 223.73-21.98 222.38-21.8 221.33-21.6L221.33-21.6Q220.08-21.35 219.03-21.05L219.03-21.05 218.23-24.5Q219.48-24.8 220.93-25.05L220.93-25.05Q222.18-25.3 223.83-25.48 225.48-25.65 227.38-25.65L227.38-25.65Q229.93-25.65 231.51-24.9 233.08-24.15 233.96-22.88 234.83-21.6 235.16-19.98 235.48-18.35 235.48-16.55L235.48-16.55 235.48-4.55Q235.48-3.85 235.51-3.08 235.53-2.3 235.61-1.55 235.68-0.8 235.78 0L235.78 0 231.93 0.4ZM248.48 0L239.23-25.15 243.63-25.15 249.73-7.4 250.83-3.45 250.88-3.45 252.03-7.4 258.53-25.15 262.73-25.15 252.98 0 248.48 0ZM284.38-3.95L285.13-0.6Q283.98-0.25 282.75 0 281.53 0.25 280.05 0.45 278.58 0.65 276.98 0.65L276.98 0.65Q274.48 0.65 272.33-0.05 270.18-0.75 268.58-2.3 266.98-3.85 266.05-6.33 265.13-8.8 265.13-12.4L265.13-12.4Q265.13-15.65 266.03-18.13 266.93-20.6 268.5-22.28 270.08-23.95 272.2-24.8 274.33-25.65 276.83-25.65L276.83-25.65Q279.28-25.65 281.08-24.7 282.88-23.75 284.05-22.13 285.23-20.5 285.8-18.32 286.38-16.15 286.38-13.75L286.38-13.75 285.63-11.55 269.48-11.55Q269.48-10 269.88-8.45 270.28-6.9 271.25-5.65 272.23-4.4 273.8-3.63 275.38-2.85 277.73-2.85L277.73-2.85Q279.23-2.85 280.48-3.03 281.73-3.2 282.65-3.43 283.58-3.65 284.38-3.95L284.38-3.95ZM269.63-14.75L282.23-14.75Q282.23-15.1 282.08-16.3 281.93-17.5 281.38-18.8 280.83-20.1 279.68-21.13 278.53-22.15 276.63-22.15L276.63-22.15Q274.53-22.15 273.18-21.28 271.83-20.4 271.03-19.2 270.23-18 269.93-16.75 269.63-15.5 269.63-14.75L269.63-14.75Z" opacity="1" transform="matrix(1,0,0,1,0,0)" fill="#ffffff" class="wordmark-text-0" data-fill-palette-color="primary" id="text-0"></path></svg></g></svg></g></svg></g></svg></g><g><svg viewBox="0 0 130.26275764301013 130.26275764301013" height="130.26275764301013" width="130.26275764301013"><g><svg></svg></g><g id="icon-0"><svg viewBox="0 0 130.26275764301013 130.26275764301013" height="130.26275764301013" width="130.26275764301013"><g><path d="M0 65.131c0-35.971 29.16-65.131 65.131-65.131 35.971 0 65.131 29.16 65.132 65.131 0 35.971-29.16 65.131-65.132 65.132-35.971 0-65.131-29.16-65.131-65.132zM65.131 125.438c33.306 0 60.307-27 60.307-60.307 0-33.306-27-60.307-60.307-60.306-33.306 0-60.307 27-60.306 60.306 0 33.306 27 60.307 60.306 60.307z" data-fill-palette-color="accent" fill="#ffffff" stroke="transparent"></path></g><g transform="matrix(1,0,0,1,27.43996977608812,49.91270273778184)"><svg viewBox="0 0 75.3828180908339 30.437352167446452" height="30.437352167446452" width="75.3828180908339"><g><svg xmlns="http://www.w3.org/2000/svg" xmlns:xlink="http://www.w3.org/1999/xlink" version="1.1" x="0" y="0" viewBox="18.884529946162072 37.59999999999994 63.154700538379245 25.500000000000064" enable-background="new 0 0 100 100" xml:space="preserve" height="30.437352167446452" width="75.3828180908339" class="icon-cg-0" data-fill-palette-color="accent" id="cg-0"><path fill-rule="evenodd" clip-rule="evenodd" d="M59.3 42.5c-0.5-0.4-1.2-0.1-1.7 0-0.6 0.2-1.2 0.4-1.7 0.6-1.1 0.4-2.1 0.9-2.9 1.4-0.1 0.1-0.1 0.1-0.2 0.2 0 0-0.2 0-0.2 0-0.1 0.1-0.5 0.3-0.7 0.5-0.2 0.1-0.3 0.4-0.5 0.6-0.1 0.1-0.3 0.2-0.4 0.3-0.1 0.1-0.2 0.3-0.3 0.4-0.1 0.1-0.2 0.1-0.3 0.2-0.1 0.1-0.2 0.3-0.3 0.4-0.1 0.1-0.2 0-0.3 0.1-0.1 0.1-0.2 0.3-0.3 0.4-0.1 0.1-0.2 0-0.3 0.1-0.1 0-0.1 0.1-0.2 0.2-0.1 0.1-0.2 0.2-0.3 0.4-0.1 0.1-0.2 0.3-0.3 0.4-0.1 0.1 0 0.2-0.1 0.3-0.1 0.1-0.2 0.2-0.3 0.4-0.1 0.2-0.3 0.4-0.4 0.6-0.2 0.3-0.6 0.7-0.9 1.1-0.3 0.3-0.5 0.4-0.8 0.7-0.3 0.3-0.6 0.7-0.9 1.1-0.1 0.1-0.1 0.1-0.2 0.2-0.1 0.2-0.3 0.4-0.4 0.6-0.1 0.1-0.1 0.3-0.2 0.4C44.2 53.9 44.1 54 44 54c-0.1 0.1-0.1 0.2-0.2 0.3-0.2 0.2-0.3 0.3-0.5 0.5-0.1 0.1-0.2 0.3-0.4 0.4-0.1 0-0.3 0.2-0.4 0.3 0 0 0 0.2-0.1 0.2 0 0-0.1 0-0.2 0-0.1 0.1-0.2 0.2-0.2 0.3 0 0-0.2 0-0.2 0 0 0-0.1 0.2-0.1 0.2 0 0-0.2 0-0.2 0 0 0 0 0.1 0 0.1 0 0-0.2 0-0.2 0-0.1 0.1-0.1 0.1-0.2 0.2 0 0-0.1 0.1-0.1 0.1-0.2 0.2-0.4 0.2-0.6 0.4-0.1 0.1-0.2 0.2-0.2 0.3-0.1 0-0.1 0.1-0.2 0.1-0.1 0.1-0.4 0.3-0.6 0.4 0 0-0.2 0.1-0.3 0.1 0 0 0 0.1 0 0.1 0 0-0.2 0-0.2 0 0 0 0 0.1 0 0.1-0.1 0.1-0.2 0-0.3 0.1-0.1 0.1-0.2 0.2-0.2 0.3-0.1 0-0.1 0.1-0.2 0.1 0 0-0.2 0.1-0.3 0.1-0.1 0.1-0.1 0.1-0.2 0.2-0.1 0.1-0.3 0.1-0.5 0.2 0 0 0 0.1-0.1 0.1-0.1 0-0.7 0.4-0.9 0.5 0 0-0.2 0.1-0.3 0.1 0 0 0 0.1 0 0.1 0 0-0.2 0-0.2 0-0.1 0.1-0.1 0.1-0.2 0.2-0.1 0.1-0.4 0.3-0.6 0.4-0.1 0.1-0.2 0.1-0.5 0.2-0.3 0.1-0.7 0.4-1.1 0.5-0.2 0.1-0.4 0.1-0.6 0.2 0 0-0.2 0-0.2 0 0 0.1-0.2 0.1-0.4 0.2C32 61.8 31.5 61.9 31 62c0 0 0 0.1-0.1 0.1-1.1 0.1-2.4 0.3-3.7 0.4-0.3 0-0.6 0-0.9 0 0 0 0 0.1-0.1 0.1 0 0-0.2 0-0.3 0-0.1-0.1-1 0-1.3-0.1-0.8-0.1-1.9-0.4-2.9-0.7-0.2-0.1-0.4-0.1-0.6-0.1-0.1 0-0.2-0.1-0.5-0.1-0.1 0-0.1 0-0.2-0.1-0.3-0.2-0.9-0.3-1.1-0.6 0 0-0.1-0.1-0.1-0.1-0.1-0.1-0.2-0.5-0.2-0.6-0.1-0.2-0.2-1 0-1.4 0.1-0.3 0.2-0.4 0.5-0.7 0.4-0.4 1.1-0.3 1.8-0.1 0 0 0.2 0 0.2 0 0 0 0 0.1 0 0.1 0.7 0.2 1.3 0.4 2 0.4 0 0 0.2 0 0.2 0 0.2 0.2 1.7 0 2.3-0.1 1.1-0.1 2-0.1 2.8-0.3 0.1 0 0.1-0.1 0.3-0.1 0.3-0.1 0.5-0.1 0.9-0.2 0.2-0.1 0.4-0.1 0.6-0.2 0.1-0.1 0.1-0.1 0.3-0.1 0.1 0 0.4-0.2 0.6-0.3 0.3-0.1 0.7-0.3 1-0.4 0.1 0 0.2-0.1 0.3-0.1 0.1 0 0.1-0.2 0.2-0.2 0.2-0.1 0.4-0.1 0.5-0.2 0 0 0.1-0.1 0.2-0.2 0.1-0.1 0.2-0.2 0.4-0.3 0 0 0-0.1 0.1-0.1 0.1 0 0.2-0.2 0.3-0.2 0.1 0 0.1-0.2 0.2-0.2 0.2-0.1 0.4-0.1 0.5-0.2 0.1 0 0.1-0.2 0.2-0.2 0.4-0.3 1-0.6 1.4-1 0.1-0.1 0.1-0.1 0.2-0.2 0.1-0.1 0.4-0.2 0.6-0.4 0.1-0.1 0.2-0.3 0.3-0.4 0.1-0.1 0.2-0.1 0.3-0.1 0.1 0 0.1-0.1 0.2-0.2 0.2-0.2 0.4-0.3 0.6-0.5 0.2-0.2 0.4-0.5 0.7-0.8 0.2-0.2 0.3-0.4 0.5-0.6 0.1-0.1 0.2-0.3 0.2-0.4 0.1-0.1 0.2-0.2 0.2-0.3 0.2-0.3 0.4-0.6 0.6-0.9 0.1-0.1 0.2-0.2 0.3-0.2 0.1 0 0.4-0.4 0.6-0.6 0.5-0.6 1-1.1 1.5-1.7 0.1-0.1 0.4-0.4 0.4-0.6 0-0.1 0.3-0.5 0.5-0.7 0.2-0.2 0.3-0.4 0.5-0.6 0.1-0.1 0.2-0.3 0.4-0.5 0 0 0.2 0 0.2 0 0.1-0.1 0.1-0.3 0.2-0.4 0 0 0.2 0 0.2 0 0.1-0.2 0.3-0.4 0.5-0.6 0.1-0.1 0.1-0.1 0.2-0.2 0.1-0.1 0.3-0.3 0.4-0.5 0 0 0.2 0 0.2 0 0 0 0-0.2 0.1-0.2 0.1-0.1 0.2 0 0.3-0.1 0.1-0.1 0.1-0.2 0.2-0.3 0.1-0.1 0.2-0.1 0.3-0.1 0.1-0.1 0.2-0.1 0.3-0.2 0.2-0.2 0.7-0.5 1.1-0.7 0 0 0.2 0 0.2 0 0 0 0-0.1 0-0.1 0 0 0.2 0 0.2 0 0 0 0-0.1 0-0.1 0 0 0.2 0 0.2 0 0 0 0-0.1 0-0.1 0.5-0.2 1-0.4 1.6-0.7 0 0 0-0.1 0.1-0.1 0.3-0.1 0.6-0.3 0.9-0.4 0 0 0.2 0 0.2 0 0 0 0-0.1 0-0.1 0.3-0.1 0.5-0.2 0.8-0.3 0 0 0.3-0.1 0.3-0.1 0.1-0.1 0.5-0.3 0.8-0.4 0.7-0.2 1.4-0.3 2-0.4 0.1 0 0.1-0.1 0.3-0.1 0.5-0.1 1.3-0.2 1.9-0.1 0.2 0 0.4 0.1 0.8 0 1-0.3 3.2-0.3 4.4-0.3 0.6 0 1.1 0 1.6 0.1 0.1 0 0.3 0.1 0.5 0.2 0.1 0 0.1 0.1 0.2 0.2 0.2 0.1 0.3 0.1 0.5 0.2 0.1 0.1 0 0.2 0.1 0.3 0 0 0.2 0.1 0.2 0.2 0.2 0.5 0.2 1.6 0.1 2.2 0 0.1-0.1 0.2-0.2 0.4 0 0-0.1 0-0.1 0.1 0 0.1-0.1 0.2-0.2 0.3-0.2 0.2-0.4 0.8-0.5 1.1-0.1 0.2-0.1 0.3-0.1 0.5 0 0.1-0.1 0.1-0.2 0.2 0 0.1 0 0.2-0.1 0.3-0.1 0.2-0.1 0.3-0.1 0.5-0.1 0.2-0.1 0.4-0.1 0.5 0 0.1-0.1 0.1-0.2 0.2 0 0 0 0.2 0 0.2-0.1 0.1-0.1 0.3-0.2 0.6 0 0-0.2 0.2-0.2 0.2 0 0.1 0 0.2 0 0.3 0 0.1-0.1 0.1-0.2 0.2-0.1 0.2-0.1 0.5-0.2 0.7 0 0.1-0.1 0.1-0.2 0.2 0 0 0 0.2 0 0.2-0.4 0.4-0.2 1.7-0.2 2.7 0.1 0.9 0.1 1.6 0.4 2.3 0 0.1 0.1 0.1 0.1 0.2 0 0 0.1 0.1 0.1 0.1 0.1 0.1 0 0.2 0.1 0.3 0 0.1 0.2 0.1 0.2 0.2 0.2 0.3 0.4 0.7 0.7 0.9 0.1 0.2 0.3 0.3 0.5 0.4 0.3 0.3 0.6 0.7 1.1 1 0.1 0.1 0.3 0.1 0.5 0.2 0 0 0 0.1 0.1 0.1 0 0 0.1 0 0.1 0 0.1 0 0.2 0.2 0.3 0.2 0 0 0.2 0 0.2 0 0 0 0 0.1 0 0.1 0 0 0.2 0 0.2 0 0.1 0.1 0.1 0.1 0.4 0.2 0.2 0.1 0.4 0.2 0.6 0.2 0.2 0.1 0.5 0.1 0.6 0.1 0 0 0 0.1 0.1 0.1 0.1 0 0.3 0.1 0.5 0.1 0 0 0.5 0 0.5 0 0.1 0.1 0.7 0.3 1 0.4 0.2 0.1 0.4 0.1 0.6 0.1 0.1 0 0.2 0 0.4 0.1 0.1 0 0.2 0 0.4 0.1 0.6 0.1 2.1-0.2 2.9 0 0 0 0.2 0.2 0.2 0.2 0.1 0 0.2 0 0.4 0 0.8 0 1.5-0.2 2.3 0 0.5 0.1 1 0.4 1.3 0.8 0 0 0 0.2 0 0.2 0.1 0.1 0.1 0.1 0.2 0.2 0.1 0.1 0.3 0.2 0.3 0.2 0.2 0.4 0.3 0.8 0.2 1.3 0 0.1 0 0.3-0.1 0.5 0 0-0.1 0-0.1 0.1 0 0.1-0.4 0.5-0.5 0.7 0 0-0.2 0-0.2 0 0 0 0 0.1 0 0.1 0 0-0.2 0-0.2 0 0 0 0 0.1 0 0.1 0 0-0.2 0-0.2 0-0.1 0.1-0.1 0.2-0.3 0.3 0 0-0.2 0-0.2 0 0 0 0 0.1 0 0.1 0 0-0.2 0-0.2 0-0.1 0.2-0.8 0.2-1.4 0.3-0.4 0.1-0.9 0.2-1.3 0.2-0.5 0-1-0.1-1.5-0.2-0.3 0-0.6 0-0.8 0 0 0 0-0.1-0.1-0.1 0 0-0.1 0-0.1 0-0.1 0-0.1 0-0.3-0.1-0.3 0-1-0.2-1.5-0.3-0.9-0.2-1.7-0.4-2.6-0.6-0.2-0.1-0.5-0.1-0.7-0.1 0 0 0-0.1-0.1-0.1 0 0-0.1 0-0.1 0-0.1 0-0.2 0-0.5-0.1 0 0 0-0.1-0.1-0.1-0.1 0-0.4-0.1-0.5-0.1-0.2-0.1-0.4-0.2-0.6-0.2-0.2-0.1-0.3-0.1-0.5-0.1-0.1 0-0.1-0.1-0.1-0.1-0.2-0.1-0.4-0.1-0.6-0.1-0.1 0-0.1-0.1-0.2-0.2-0.1 0-0.2 0-0.3-0.1-0.1 0-0.1-0.1-0.2-0.2-0.2-0.1-0.7-0.3-1-0.5-0.1 0-0.1-0.1-0.2-0.2-0.2-0.1-0.4-0.2-0.6-0.3-0.1 0-0.1-0.1-0.2-0.2-0.1-0.1-0.2-0.2-0.4-0.2-0.4-0.2-0.9-0.8-1.3-1.2-0.1-0.1-0.1-0.1-0.2-0.2-0.2-0.3-0.6-0.7-0.9-1-0.4-0.4-0.8-0.8-1.1-1.3 0-0.1-0.1-0.2-0.1-0.3 0 0-0.2 0-0.2-0.1 0 0 0-0.2 0-0.2 0 0-0.1 0-0.1 0 0 0 0-0.2 0-0.2-0.1-0.1-0.3-0.3-0.4-0.5 0 0 0-0.2 0-0.2-0.1-0.1-0.1-0.1-0.1-0.2 0-0.1-0.1-0.1-0.1-0.1-0.1-0.4-0.2-1-0.3-1.5-0.1-0.7-0.2-1.4-0.3-2.3 0-0.1 0-0.2 0-0.3 0 0 0.1-0.1 0.1-0.1 0-0.1-0.1-0.1-0.1-0.3 0-0.7-0.1-1.3 0-1.8 0 0 0.1 0 0.1-0.1 0-0.1 0-0.1 0-0.2 0 0 0.2-0.2 0.2-0.2 0-0.2 0-0.3 0.1-0.5 0-0.1 0.1-0.2 0.2-0.4 0-0.1 0-0.2 0.1-0.3 0 0 0.2-0.1 0.2-0.1 0.1-0.1 0.1-0.3 0.1-0.5 0-0.1 0-0.2 0.1-0.3 0 0 0.2-0.1 0.2-0.1 0-0.1 0-0.2 0.1-0.3 0.1-0.1 0.1-0.3 0.2-0.5 0 0 0.1 0 0.1-0.1C59.1 43.3 59.4 42.9 59.3 42.5z" fill="#ffffff" data-fill-palette-color="accent"></path></svg></g></svg></g></svg></g></svg></g></svg></g><defs></defs></svg><rect width="395.52" height="93.49827113303444" fill="none" stroke="none" visibility="hidden"></rect></g></svg></g></svg>